<svg xmlns="http://www.w3.org/2000/svg" viewBox="0 0 280 280"><defs><style type="text/css">text {fill:#fe0039;font:bold 16px monospace;paint-order:stroke fill;stroke:rgba(254,0,57,0.3);stroke-width:2px;stroke-linejoin:round;}.t {fill:rgba(255,255,255,0.1)}.i {fill:#fe0039;}.s {fill:#fff}</style></defs><rect x="0" y="0" height="280" width="280" fill="#0a1627" /><g transform="translate(65, 45)"><g transform="translate(0,0)"><text x="-43" y="16">AGI</text><rect rx="1" x="0" y="0" height="20" width="192" class="t" /><rect x="2" y="2" height="16" width="190" class="t" /><rect rx="1" x="2" y="3" height="14" width="111" class="i"><animate attributeName="width" begin="0.6s" additive="sum" values="0.3;-0.3;0.6;0.3;0.6;-0.6;0.5;-0.3;0.3" dur="0.5" repeatCount="indefinite" /></rect><rect x="2" y="4" height="12" width="190" class="t" /><rect rx="1" x="3" y="6" height="3" width="187" class="s" /></g><g transform="translate(0,28)"><text x="-43" y="16">CHA</text><rect rx="1" x="0" y="0" height="20" width="192" class="t" /><rect x="2" y="2" height="16" width="190" class="t" /><rect rx="1" x="2" y="3" height="14" width="73" class="i"><animate attributeName="width" begin="0.4s" additive="sum" values="0.3;-0.3;0.6;0.3;0.6;-0.6;0.5;-0.3;0.3" dur="0.5" repeatCount="indefinite" /></rect><rect x="2" y="4" height="12" width="190" class="t" /><rect rx="1" x="3" y="6" height="3" width="187" class="s" /></g><g transform="translate(0,56)"><text x="-43" y="16">CON</text><rect rx="1" x="0" y="0" height="20" width="192" class="t" /><rect x="2" y="2" height="16" width="190" class="t" /><rect rx="1" x="2" y="3" height="14" width="73" class="i"><animate attributeName="width" begin="0.4s" additive="sum" values="0.3;-0.3;0.6;0.3;0.6;-0.6;0.5;-0.3;0.3" dur="0.5" repeatCount="indefinite" /></rect><rect x="2" y="4" height="12" width="190" class="t" /><rect rx="1" x="3" y="6" height="3" width="187" class="s" /></g><g transform="translate(0,84)"><text x="-43" y="16">DEX</text><rect rx="1" x="0" y="0" height="20" width="192" class="t" /><rect x="2" y="2" height="16" width="190" class="t" /><rect rx="1" x="2" y="3" height="14" width="149" class="i"><animate attributeName="width" begin="0.8s" additive="sum" values="0.3;-0.3;0.6;0.3;0.6;-0.6;0.5;-0.3;0.3" dur="0.5" repeatCount="indefinite" /></rect><rect x="2" y="4" height="12" width="190" class="t" /><rect rx="1" x="3" y="6" height="3" width="187" class="s" /></g><g transform="translate(0,112)"><text x="-43" y="16">INT</text><rect rx="1" x="0" y="0" height="20" width="192" class="t" /><rect x="2" y="2" height="16" width="190" class="t" /><rect rx="1" x="2" y="3" height="14" width="92" class="i"><animate attributeName="width" begin="0.5s" additive="sum" values="0.3;-0.3;0.6;0.3;0.6;-0.6;0.5;-0.3;0.3" dur="0.5" repeatCount="indefinite" /></rect><rect x="2" y="4" height="12" width="190" class="t" /><rect rx="1" x="3" y="6" height="3" width="187" class="s" /></g><g transform="translate(0,140)"><text x="-43" y="16">STR</text><rect rx="1" x="0" y="0" height="20" width="192" class="t" /><rect x="2" y="2" height="16" width="190" class="t" /><rect rx="1" x="2" y="3" height="14" width="73" class="i"><animate attributeName="width" begin="0.4s" additive="sum" values="0.3;-0.3;0.6;0.3;0.6;-0.6;0.5;-0.3;0.3" dur="0.5" repeatCount="indefinite" /></rect><rect x="2" y="4" height="12" width="190" class="t" /><rect rx="1" x="3" y="6" height="3" width="187" class="s" /></g><g transform="translate(0,168)"><text x="-43" y="16">WIS</text><rect rx="1" x="0" y="0" height="20" width="192" class="t" /><rect x="2" y="2" height="16" width="190" class="t" /><rect rx="1" x="2" y="3" height="14" width="73" class="i"><animate attributeName="width" begin="0.4s" additive="sum" values="0.3;-0.3;0.6;0.3;0.6;-0.6;0.5;-0.3;0.3" dur="0.5" repeatCount="indefinite" /></rect><rect x="2" y="4" height="12" width="190" class="t" /><rect rx="1" x="3" y="6" height="3" width="187" class="s" /></g></g></svg>